<?xml version="1.0" standalone="no"?>
<!DOCTYPE svg PUBLIC "-//W3C//DTD SVG 20010904//EN"
 "http://www.w3.org/TR/2001/REC-SVG-20010904/DTD/svg10.dtd">
<svg version="1.0" xmlns="http://www.w3.org/2000/svg"
 width="1000.000000pt" height="1000.000000pt" viewBox="0 0 1000.000000 1000.000000"
 preserveAspectRatio="xMidYMid meet">
<metadata>
Created by potrace 1.11, written by Peter Selinger 2001-2013
</metadata>
<g transform="translate(0.000000,1000.000000) scale(0.100000,-0.100000)"
fill="#000000" stroke="none">
<path d="M4795 8863 c-110 -191 -212 -368 -228 -395 -15 -27 -86 -151 -159
-276 -178 -309 -337 -584 -382 -662 -20 -36 -41 -72 -46 -80 -9 -14 -118 -202
-163 -280 -10 -19 -96 -168 -190 -330 -238 -413 -351 -609 -374 -650 -11 -19
-130 -224 -263 -455 -134 -231 -252 -436 -263 -455 -10 -19 -50 -87 -87 -150
-37 -63 -78 -133 -90 -155 -12 -22 -65 -114 -118 -205 -102 -177 -223 -387
-470 -815 -86 -148 -220 -380 -297 -515 -78 -135 -201 -346 -272 -470 -71
-124 -173 -299 -225 -390 -53 -91 -106 -184 -119 -206 -92 -159 -272 -472
-280 -484 -12 -20 -245 -423 -277 -480 -14 -25 -56 -98 -94 -164 -38 -65 -70
-123 -71 -129 -1 -8 1273 -12 4668 -12 2569 -1 4673 0 4677 2 5 3 -112 210
-513 902 -49 84 -89 157 -89 162 0 5 -4 9 -10 9 -5 0 -10 4 -10 9 0 9 -18 41
-380 666 -111 193 -211 366 -222 385 -71 123 -380 660 -713 1235 -213 369
-399 690 -413 715 -14 25 -64 113 -112 195 -75 129 -317 548 -378 655 -11 19
-76 132 -144 250 -262 452 -599 1036 -676 1170 -11 19 -77 134 -147 255 -70
121 -137 238 -150 260 -13 22 -79 137 -147 255 -69 118 -151 260 -183 315 -31
55 -127 222 -213 370 -85 149 -160 275 -166 282 -8 9 -61 -74 -211 -334z m329
-31 c66 -114 217 -376 337 -582 677 -1172 853 -1478 868 -1505 9 -16 24 -41
32 -55 9 -14 61 -104 116 -200 56 -96 149 -257 207 -358 58 -101 106 -186 106
-188 0 -3 9 -17 19 -32 10 -15 122 -207 249 -427 126 -220 239 -416 251 -435
11 -19 28 -48 37 -65 9 -16 90 -156 179 -310 89 -154 316 -548 505 -875 189
-327 433 -750 543 -940 110 -190 211 -364 224 -388 13 -24 130 -226 259 -449
129 -223 234 -409 234 -414 0 -5 5 -9 10 -9 6 0 10 -4 10 -9 0 -5 48 -92 106
-193 58 -100 109 -190 114 -198 7 -13 -499 -15 -4526 -15 -2494 0 -4535 3
-4537 6 -2 6 70 132 548 959 139 239 304 525 367 635 126 220 274 475 568 985
107 184 242 418 300 520 180 312 318 549 535 925 114 198 226 392 248 430 22
39 97 169 167 290 70 121 137 236 148 255 10 19 84 148 164 285 80 138 162
281 184 318 21 38 50 88 63 110 13 23 199 346 413 717 215 371 404 700 422
730 18 30 115 198 216 373 101 174 186 317 189 317 3 0 60 -93 125 -208z"/>
</g>
</svg>
